<svg width="49" height="48" viewBox="0 0 49 48" fill="none" xmlns="http://www.w3.org/2000/svg">
<path fill-rule="evenodd" clip-rule="evenodd" d="M24.0596 15C19.089 15 15.0596 19.0294 15.0596 24C15.0596 28.9706 19.089 33 24.0596 33C29.0301 33 33.0596 28.9706 33.0596 24C33.0596 19.0294 29.0301 15 24.0596 15ZM13.0596 24C13.0596 17.9249 17.9844 13 24.0596 13C30.1347 13 35.0596 17.9249 35.0596 24C35.0596 30.0751 30.1347 35 24.0596 35C17.9844 35 13.0596 30.0751 13.0596 24ZM24.0596 19C24.6119 19 25.0596 19.4477 25.0596 20V23H28.0596C28.6119 23 29.0596 23.4477 29.0596 24C29.0596 24.5523 28.6119 25 28.0596 25H25.0596V28C25.0596 28.5523 24.6119 29 24.0596 29C23.5073 29 23.0596 28.5523 23.0596 28V25H20.0596C19.5073 25 19.0596 24.5523 19.0596 24C19.0596 23.4477 19.5073 23 20.0596 23H23.0596V20C23.0596 19.4477 23.5073 19 24.0596 19Z" fill="#8C8C8C"/>
</svg>
