<?xml version="1.0" standalone="no"?>
<!DOCTYPE svg PUBLIC "-//W3C//DTD SVG 20010904//EN"
 "http://www.w3.org/TR/2001/REC-SVG-20010904/DTD/svg10.dtd">
<svg version="1.0" xmlns="http://www.w3.org/2000/svg"
 width="145.000000pt" height="144.000000pt" viewBox="0 0 145.000000 144.000000"
 preserveAspectRatio="xMidYMid meet">

<g transform="translate(0.000000,144.000000) scale(0.100000,-0.100000)"
fill="#000000" stroke="none">
<path d="M717 842 c-71 -71 -117 -125 -117 -137 0 -21 226 -255 246 -255 7 0
17 7 25 16 11 13 -2 30 -94 122 -59 59 -107 112 -107 117 0 5 48 58 107 117
92 92 105 109 94 122 -8 9 -19 16 -25 16 -6 0 -64 -53 -129 -118z"/>
</g>
</svg>
