<svg width="24" height="25" viewBox="0 0 24 25" fill="none" xmlns="http://www.w3.org/2000/svg">
<g id="more-horizontal">
<path id="Vector" d="M9.99992 14.2409C10.8249 14.2409 11.4937 13.5721 11.4937 12.7471C11.4937 11.9221 10.8249 11.2533 9.99992 11.2533C9.17491 11.2533 8.5061 11.9221 8.5061 12.7471C8.5061 13.5721 9.17491 14.2409 9.99992 14.2409Z" fill="#3A3A3A"/>
<path id="Vector_2" d="M17.4692 14.2409C18.2942 14.2409 18.963 13.5721 18.963 12.7471C18.963 11.9221 18.2942 11.2533 17.4692 11.2533C16.6441 11.2533 15.9753 11.9221 15.9753 12.7471C15.9753 13.5721 16.6441 14.2409 17.4692 14.2409Z" fill="#3A3A3A"/>
<path id="Vector_3" d="M2.53092 14.2409C3.35594 14.2409 4.02474 13.5721 4.02474 12.7471C4.02474 11.9221 3.35594 11.2533 2.53092 11.2533C1.70591 11.2533 1.03711 11.9221 1.03711 12.7471C1.03711 13.5721 1.70591 14.2409 2.53092 14.2409Z" fill="#3A3A3A"/>
</g>
</svg>
