<svg width="49" height="48" viewBox="0 0 49 48" fill="none" xmlns="http://www.w3.org/2000/svg">
<path fill-rule="evenodd" clip-rule="evenodd" d="M38.9358 23.3211C39.1009 23.4994 39.2017 23.738 39.2017 24.0002C39.2017 24.4097 38.9555 24.7618 38.603 24.9164L19.5434 34.0932C19.1739 34.2711 18.7334 34.2055 18.4319 33.9276C18.1304 33.6497 18.029 33.216 18.1762 32.8333L21.5737 23.9999L18.1762 15.1664C18.029 14.7838 18.1304 14.35 18.4319 14.0721C18.7334 13.7943 19.1739 13.7286 19.5434 13.9065L38.6228 23.0928C38.6688 23.1142 38.7129 23.139 38.7548 23.1669C38.8217 23.2113 38.8823 23.2632 38.9358 23.3211ZM33.82 23.0002L20.9484 16.8027L23.332 23.0002L33.82 23.0002ZM23.3318 25.0002L33.8188 25.0002L20.9484 31.197L23.3318 25.0002Z" fill="#BABABA"/>
</svg>
