<svg width="49" height="48" viewBox="0 0 49 48" fill="none" xmlns="http://www.w3.org/2000/svg">
<path d="M28.2498 16.6685C28.4618 16.4565 28.7134 16.2884 28.9903 16.1737C29.2672 16.059 29.564 16 29.8637 16C30.1634 16 30.4602 16.059 30.7371 16.1737C31.014 16.2884 31.2656 16.4565 31.4775 16.6685C31.6895 16.8804 31.8576 17.132 31.9723 17.4089C32.087 17.6858 32.146 17.9826 32.146 18.2823C32.146 18.582 32.087 18.8788 31.9723 19.1557C31.8576 19.4326 31.6895 19.6842 31.4775 19.8962L20.5841 30.7896L16.146 32L17.3564 27.5619L28.2498 16.6685Z" stroke="#3C3C3C" stroke-width="1.6" stroke-linecap="round" stroke-linejoin="round"/>
</svg>
