<svg width="49" height="49" viewBox="0 0 49 49" fill="none" xmlns="http://www.w3.org/2000/svg">
<path d="M20.6647 23.7661L23.998 16.2661C24.6611 16.2661 25.297 16.5295 25.7658 16.9983C26.2347 17.4672 26.498 18.1031 26.498 18.7661V22.0994H31.2147C31.4563 22.0967 31.6956 22.1465 31.916 22.2455C32.1364 22.3444 32.3327 22.4901 32.4913 22.6724C32.6498 22.8547 32.7668 23.0693 32.8342 23.3013C32.9015 23.5333 32.9176 23.7772 32.8814 24.0161L31.7314 31.5161C31.6711 31.9135 31.4692 32.2758 31.163 32.5361C30.8567 32.7965 30.4667 32.9373 30.0647 32.9328H20.6647M20.6647 23.7661V32.9328M20.6647 23.7661H18.1647C17.7227 23.7661 17.2988 23.9417 16.9862 24.2543C16.6736 24.5668 16.498 24.9908 16.498 25.4328V31.2661C16.498 31.7081 16.6736 32.1321 16.9862 32.4446C17.2988 32.7572 17.7227 32.9328 18.1647 32.9328H20.6647" stroke="#3C3C3C" stroke-width="1.6" stroke-linecap="round" stroke-linejoin="round"/>
</svg>
