<svg xmlns="http://www.w3.org/2000/svg" width="18" height="18" viewBox="0 0 18 18" fill="none">
  <path d="M2.36572 4.57715H3.84001H15.6343" stroke="white" stroke-width="1.2" stroke-linecap="round" stroke-linejoin="round"/>
  <path d="M14.1598 4.57711V14.8971C14.1598 15.2881 14.0045 15.6631 13.728 15.9396C13.4515 16.2161 13.0766 16.3714 12.6855 16.3714H5.31413C4.92312 16.3714 4.54813 16.2161 4.27165 15.9396C3.99517 15.6631 3.83984 15.2881 3.83984 14.8971V4.57711M6.05127 4.57711V3.10282C6.05127 2.71182 6.2066 2.33683 6.48308 2.06035C6.75956 1.78387 7.13455 1.62854 7.52555 1.62854H10.4741C10.8651 1.62854 11.2401 1.78387 11.5166 2.06035C11.7931 2.33683 11.9484 2.71182 11.9484 3.10282V4.57711" stroke="white" stroke-width="1.2" stroke-linecap="round" stroke-linejoin="round"/>
  <path d="M7.52588 8.26282V12.6857" stroke="white" stroke-width="1.2" stroke-linecap="round" stroke-linejoin="round"/>
  <path d="M10.4741 8.26282V12.6857" stroke="white" stroke-width="1.2" stroke-linecap="round" stroke-linejoin="round"/>
</svg>