<svg xmlns="http://www.w3.org/2000/svg" width="25" height="25" viewBox="0 0 25 25" fill="none">
  <path d="M10.4683 13.4731C11.0205 13.4731 11.4683 13.0254 11.4683 12.4731C11.4683 11.9209 11.0205 11.4731 10.4683 11.4731C9.91598 11.4731 9.46826 11.9209 9.46826 12.4731C9.46826 13.0254 9.91598 13.4731 10.4683 13.4731Z" fill="#3A3A3A"/>
  <path d="M15.4683 13.4731C16.0205 13.4731 16.4683 13.0254 16.4683 12.4731C16.4683 11.9209 16.0205 11.4731 15.4683 11.4731C14.916 11.4731 14.4683 11.9209 14.4683 12.4731C14.4683 13.0254 14.916 13.4731 15.4683 13.4731Z" fill="#3A3A3A"/>
  <path d="M5.46826 13.4731C6.02055 13.4731 6.46826 13.0254 6.46826 12.4731C6.46826 11.9209 6.02055 11.4731 5.46826 11.4731C4.91598 11.4731 4.46826 11.9209 4.46826 12.4731C4.46826 13.0254 4.91598 13.4731 5.46826 13.4731Z" fill="#3A3A3A"/>
</svg>