<svg width="289" height="56" viewBox="0 0 289 56" fill="none" xmlns="http://www.w3.org/2000/svg">
<g filter="url(#filter0_d_697_812)">
<rect x="4.5" width="280" height="48" rx="8" fill="#F4F4F4" shape-rendering="crispEdges"/>
<g clip-path="url(#clip0_697_812)">
<path fill-rule="evenodd" clip-rule="evenodd" d="M109 24.2315C109 23.5077 108.935 22.8126 108.815 22.1445H99.2046V26.0917H104.697C104.46 27.3673 103.741 28.4478 102.66 29.1717V31.7316H105.959C107.888 29.9552 109.001 27.3394 109.001 24.2315H109Z" fill="#4285F4"/>
<path fill-rule="evenodd" clip-rule="evenodd" d="M99.2044 34.2048C101.96 34.2048 104.27 33.2906 105.958 31.7323L102.659 29.1723C101.745 29.7847 100.577 30.1461 99.2035 30.1461C96.5454 30.1461 94.296 28.3514 93.4933 25.9395H90.0854V28.583C91.7649 31.9178 95.215 34.2048 99.2044 34.2048Z" fill="#34A853"/>
<path fill-rule="evenodd" clip-rule="evenodd" d="M93.4941 25.9395C93.2903 25.3271 93.174 24.6734 93.174 24.0005C93.174 23.3276 93.2903 22.6739 93.4941 22.0616V19.418H90.0853C89.3941 20.7955 89 22.3538 89 24.0005C89 25.6472 89.3941 27.2055 90.0853 28.5831L93.4941 25.9395Z" fill="#FBBC05"/>
<path fill-rule="evenodd" clip-rule="evenodd" d="M99.2044 17.8545C100.702 17.8545 102.048 18.3698 103.105 19.3801L106.033 16.453C104.265 14.8072 101.955 13.7959 99.2044 13.7959C95.215 13.7959 91.7649 16.0828 90.0854 19.4176L93.4942 22.0612C94.2969 19.6493 96.5464 17.8545 99.2044 17.8545Z" fill="#EA4335"/>
</g>
<path d="M136.71 18.6094V19.7168C136.703 20.8721 136.703 22.1367 136.382 23.8867H138.091V25.1172H133.182V30.2305H131.651V25.1172H126.825V23.8867H134.837C135.179 22.2051 135.192 20.9404 135.192 19.8398H128.151V18.6094H136.71ZM148.907 18.377V19.1973C148.914 20.0039 148.914 21.0293 148.654 22.3145H150.288V23.5176H138.995V22.3145H147.123C147.348 21.1865 147.382 20.3115 147.389 19.5801H140.389V18.377H148.907ZM140.293 25.6914V24.502H148.893V27.8516H141.825V28.9043H149.208V30.0938H140.307V26.6895H147.375V25.6914H140.293ZM165.849 27.5234V28.7812H154.556V27.5234H159.424V25.5137H155.896V21.4668H163.006V19.9355H155.869V18.7051H164.51V22.6699H157.414V24.2695H164.797V25.5137H160.928V27.5234H165.849ZM176.556 19.0605V20.4551C176.556 22.1094 176.556 23.8115 176.105 26.416L174.56 26.2793C175.039 23.8525 175.039 22.0615 175.039 20.4551V20.291H167.916V19.0605H176.556ZM166.726 28.5215V27.2773H177.992V28.5215H166.726ZM189.191 17.8711V26.7988H187.659V17.8711H189.191ZM179.114 21.7676C179.114 19.9697 180.571 18.6846 182.45 18.6777C184.33 18.6846 185.779 19.9697 185.773 21.7676C185.779 23.5928 184.33 24.8711 182.45 24.8711C180.571 24.8711 179.114 23.5928 179.114 21.7676ZM180.605 21.7676C180.598 22.8613 181.391 23.5449 182.45 23.5449C183.483 23.5449 184.282 22.8613 184.282 21.7676C184.282 20.7012 183.483 20.0039 182.45 20.0039C181.391 20.0039 180.598 20.7012 180.605 21.7676ZM181.015 29.9707V25.8965H182.546V28.7402H189.532V29.9707H181.015Z" fill="#121212"/>
</g>
<defs>
<filter id="filter0_d_697_812" x="0.5" y="0" width="288" height="56" filterUnits="userSpaceOnUse" color-interpolation-filters="sRGB">
<feFlood flood-opacity="0" result="BackgroundImageFix"/>
<feColorMatrix in="SourceAlpha" type="matrix" values="0 0 0 0 0 0 0 0 0 0 0 0 0 0 0 0 0 0 127 0" result="hardAlpha"/>
<feOffset dy="4"/>
<feGaussianBlur stdDeviation="2"/>
<feComposite in2="hardAlpha" operator="out"/>
<feColorMatrix type="matrix" values="0 0 0 0 0 0 0 0 0 0 0 0 0 0 0 0 0 0 0.25 0"/>
<feBlend mode="normal" in2="BackgroundImageFix" result="effect1_dropShadow_697_812"/>
<feBlend mode="normal" in="SourceGraphic" in2="effect1_dropShadow_697_812" result="shape"/>
</filter>
<clipPath id="clip0_697_812">
<rect width="20" height="20.4086" fill="white" transform="translate(89 13.7959)"/>
</clipPath>
</defs>
</svg>
