<svg xmlns="http://www.w3.org/2000/svg" width="22" height="20" viewBox="0 0 22 20" fill="none">
  <g clip-path="url(#clip0_183_2418)">
    <path fill-rule="evenodd" clip-rule="evenodd" d="M0.115234 8.60424C0.115234 3.8527 4.98952 0 11.0002 0C17.0149 0 21.8812 3.84874 21.8812 8.60028C21.8812 13.3518 17.0069 17.2045 10.9962 17.2045C10.3073 17.2045 9.63018 17.157 8.97685 17.058C7.76916 17.8776 4.97368 19.7783 4.78758 19.905C4.55 20.0634 4.18572 20.0752 4.33222 19.4813C4.45497 19.0061 5.04891 16.7769 5.27857 15.9256C2.18215 14.409 0.115234 11.6967 0.115234 8.60424ZM4.49852 10.9127C4.50248 11.4433 5.67849 11.471 5.67849 10.9404H5.68245V7.14314C5.68245 7.14314 6.06257 7.05999 6.81094 7.05999C7.51575 7.05999 7.51575 5.86419 6.81094 5.86419H3.36212C2.6969 5.86419 2.6969 7.03227 3.36212 7.03227H4.49852C4.49852 7.03227 4.50644 10.1881 4.49852 10.9127ZM9.94695 10.3385C9.94695 10.3385 9.87568 10.3702 10.1529 11.0988L10.1568 11.0948C10.3785 11.6848 11.4556 11.277 11.2338 10.687C11.1346 10.4261 10.9608 9.95604 10.7619 9.41854C10.3181 8.21848 9.74986 6.68221 9.61038 6.38685C9.51535 6.18887 9.18275 6.04633 8.86202 6.04633C8.59276 6.04633 8.33539 6.14532 8.22452 6.38685C8.08238 6.69715 7.75503 7.59245 7.42258 8.50169C7.09747 9.39086 6.76748 10.2934 6.60108 10.6751C6.35954 11.2334 7.40488 11.6888 7.64642 11.1305L7.87211 10.3385H9.94695ZM13.2788 11.3621C13.7118 11.3611 14.1431 11.3601 14.4094 11.3601V11.3562C14.944 11.3562 14.94 10.2237 14.4094 10.2237C13.8788 10.2237 12.9048 10.2198 12.9048 10.2198V6.56504C12.9048 6.21659 12.5999 6.04633 12.291 6.04633C11.9822 6.04633 11.6773 6.21659 11.6773 6.56504C11.6813 7.55098 11.6813 10.7305 11.6813 10.7305C11.6813 10.7305 11.5902 11.3641 12.1327 11.3641C12.4049 11.3641 12.8427 11.3631 13.2788 11.3621ZM16.6268 9.23382L18.1235 11.273L18.1275 11.2691C18.4284 11.669 19.3787 10.9483 19.0778 10.5484L17.49 8.45773C17.49 8.45773 18.567 7.29361 18.9907 6.86993C19.2362 6.62443 18.472 5.85231 18.2225 6.0978C17.981 6.33538 16.2942 8.02613 16.2942 8.02613C16.2942 8.02613 16.31 6.96496 16.2942 6.37893C16.2902 6.1572 16.017 6.05029 15.7359 6.05029C15.4389 6.05029 15.1301 6.17304 15.138 6.41061C15.1437 6.72604 15.1329 8.86471 15.1264 10.1303C15.124 10.6123 15.1222 10.9676 15.1222 11.0473C15.1222 11.5066 16.2863 11.5027 16.2863 11.0473V9.50703L16.6268 9.23382ZM9.57071 9.2932H8.25216L8.93717 7.31736L9.57071 9.2932Z" fill="#121212"/>
  </g>
  <defs>
    <clipPath id="clip0_183_2418">
      <rect width="21.7699" height="20" fill="white" transform="translate(0.115234)"/>
    </clipPath>
  </defs>
</svg>