<svg width="267" height="32" viewBox="0 0 267 32" fill="none" xmlns="http://www.w3.org/2000/svg">
<g clip-path="url(#clip0_802_1800)">
<path d="M21.8351 20.7973H28.8577C28.4874 24.1548 27.0128 26.8663 24.4404 28.9251C21.8681 30.9706 18.7205 32 15.0108 32C10.4348 32 6.7846 30.5534 4.06018 27.6535C1.3556 24.7267 0 20.8579 0 16.0538C0 11.2498 1.36882 7.36754 4.10647 4.40706C6.83089 1.47351 10.4679 0 15.0174 0C18.7866 0 21.9409 1.00925 24.4867 3.02775C27.0326 5.04626 28.494 7.73087 28.8643 11.0749H21.8417C21.4185 9.51388 20.5919 8.28259 19.3553 7.37426C18.1253 6.46594 16.6639 6.01514 14.9777 6.01514C12.5376 6.01514 10.6332 6.91001 9.25775 8.69302C7.88231 10.476 7.19459 12.9453 7.19459 16.0942C7.19459 19.2431 7.8757 21.6585 9.23129 23.3877C10.5869 25.1169 12.4649 25.9781 14.8587 25.9781C16.6639 25.9781 18.1915 25.5139 19.428 24.5786C20.6646 23.6434 21.4714 22.3852 21.8417 20.7973H21.8351Z" fill="white"/>
<path d="M90.5936 31.583H68.8975V0.376953H90.5936V6.33154H75.7019V12.6225H88.4578V18.2272H75.7019V25.6284H90.5936V31.583Z" fill="white"/>
<path d="M115.292 20.7974H122.315C121.944 24.1549 120.47 26.8664 117.897 28.9253C115.325 30.9707 112.177 32.0001 108.468 32.0001C103.892 32.0001 100.241 30.5535 97.517 27.6536C94.8058 24.7268 93.4502 20.858 93.4502 16.0539C93.4502 11.2499 94.819 7.36764 97.5567 4.4139C100.281 1.47361 103.918 0.00683594 108.468 0.00683594C112.237 0.00683594 115.391 1.01609 117.937 3.03459C120.483 5.05309 121.944 7.7377 122.315 11.0817H115.292C114.869 9.52071 114.042 8.28943 112.805 7.3811C111.576 6.47277 110.114 6.02197 108.428 6.02197C105.988 6.02197 104.083 6.91684 102.708 8.69985C101.333 10.4829 100.645 12.9522 100.645 16.101C100.645 19.2499 101.326 21.6654 102.681 23.3946C104.037 25.1237 105.915 25.985 108.309 25.985C110.114 25.985 111.642 25.5207 112.878 24.5855C114.115 23.6502 114.922 22.392 115.292 20.8041V20.7974Z" fill="white"/>
<path d="M154.075 31.583H145.856L137.907 19.4989L133.774 24.5586V31.583H126.977V0.376953H133.774V14.8833L145.327 0.376953H153.645L142.53 13.9009L154.075 31.583Z" fill="white"/>
<path d="M163.214 31.583H156.582V0.376953H165.026L172.525 17.8101H172.809L180.222 0.376953H188.666V31.583H182.073V18.4358L182.483 9.8841H182.192L172.683 31.0986L163.128 9.8841H162.797L163.207 18.5166V31.583H163.214Z" fill="white"/>
<path d="M221.829 31.583H214.389L212.624 26.1465H200.708L198.903 31.583H191.88L202.678 0.376953H210.587L221.822 31.583H221.829ZM203.65 17.2853L202.48 20.8378H210.905L209.714 17.2853L206.897 7.60992H206.653L203.65 17.2853Z" fill="white"/>
<path d="M218.542 0.376953H242.15V6.419H233.705V31.583H226.927V6.419H218.542V0.376953Z" fill="white"/>
<path d="M267 31.583H245.304V0.376953H267V6.33154H252.108V12.6225H264.864V18.2272H252.108V25.6284H267V31.583Z" fill="white"/>
<path d="M43.4651 0.921875H33.4072V11.1557H43.4651V0.921875Z" fill="black"/>
<path d="M53.5164 11.1553H43.4585V21.3891H53.5164V11.1553Z" fill="black"/>
<path d="M63.5745 0.921875H53.5166V11.1557H63.5745V0.921875Z" fill="black"/>
<path d="M63.5745 21.3828H53.5166V31.6166H63.5745V21.3828Z" fill="black"/>
<path d="M43.4651 21.3828H33.4072V31.6166H43.4651V21.3828Z" fill="black"/>
</g>
<defs>
<clipPath id="clip0_802_1800">
<rect width="267" height="32" fill="white"/>
</clipPath>
</defs>
</svg>
