<svg width="27" height="27" viewBox="0 0 27 27" fill="none" xmlns="http://www.w3.org/2000/svg">
<g id="heart" clip-path="url(#clip0_58_452)">
<path id="Vector" d="M23.3115 5.33295C22.7471 4.76826 22.0769 4.32031 21.3393 4.01468C20.6018 3.70906 19.8112 3.55176 19.0128 3.55176C18.2144 3.55176 17.4238 3.70906 16.6862 4.01468C15.9486 4.32031 15.2784 4.76826 14.714 5.33295L13.5426 6.50433L12.3713 5.33295C11.2312 4.19285 9.68486 3.55235 8.07251 3.55235C6.46017 3.55235 4.91386 4.19285 3.77376 5.33295C2.63367 6.47305 1.99316 8.01935 1.99316 9.6317C1.99316 11.244 2.63367 12.7903 3.77376 13.9304L4.94514 15.1018L13.5426 23.6993L22.1401 15.1018L23.3115 13.9304C23.8762 13.366 24.3242 12.6959 24.6298 11.9583C24.9354 11.2207 25.0927 10.4301 25.0927 9.6317C25.0927 8.83329 24.9354 8.04271 24.6298 7.30512C24.3242 6.56752 23.8762 5.89737 23.3115 5.33295Z" stroke="white" stroke-width="2.21015" stroke-linecap="round" stroke-linejoin="round"/>
</g>
<defs>
<clipPath id="clip0_58_452">
<rect width="26.5218" height="26.5218" fill="white" transform="translate(0.281738 0.239075)"/>
</clipPath>
</defs>
</svg>
